<svg width="123" height="123" viewBox="0 0 123 123" fill="none" xmlns="http://www.w3.org/2000/svg">
<rect x="0.5" y="0.5" width="122" height="122" fill="white" stroke="#C7B491"/>
<rect x="0.5" y="0.5" width="122" height="122" fill="white" stroke="#C7B491"/>
<line x1="44.3326" y1="47.0121" x2="44.3326" y2="85.6516" stroke="black" stroke-width="7.30196"/>
<line x1="74.4536" y1="49.7812" x2="74.1493" y2="85.6825" stroke="black" stroke-width="7.30196"/>
<line y1="-3.65098" x2="22.0475" y2="-3.65098" transform="matrix(0.617566 0.786519 -0.812335 0.583191 58.6328 36.8253)" stroke="black" stroke-width="7.30196"/>
<line x1="47.086" y1="47.7065" x2="62.6819" y2="75.3987" stroke="black" stroke-width="2.12974"/>
<line y1="-0.456372" x2="48.879" y2="-0.456372" transform="matrix(-0.578881 0.815412 -0.838787 -0.544459 88.7539 33.6252)" stroke="black" stroke-width="0.912744"/>
<path d="M24.5849 93.7431H25.3317L27.9005 99.911H27.9628L30.5316 93.7431H31.2784V100.824H30.6699V95.1088H30.6146L28.2255 100.824H27.6378L25.2487 95.1088H25.1934V100.824H24.5849V93.7431ZM39.5557 93.7431H40.3025L42.4011 97.1037H42.4633L44.5619 93.7431H45.3087L42.7537 97.7571V100.824H42.1107V97.7571L39.5557 93.7431ZM57.4263 95.5133C57.3871 95.1191 57.2131 94.8057 56.9042 94.5729C56.5954 94.3401 56.207 94.2237 55.7391 94.2237C55.4095 94.2237 55.1191 94.2802 54.8678 94.3931C54.6189 94.506 54.423 94.6628 54.2801 94.8633C54.1395 95.0615 54.0692 95.2874 54.0692 95.5409C54.0692 95.7276 54.1095 95.8913 54.1902 96.0319C54.2709 96.1725 54.3792 96.2935 54.5152 96.3949C54.6535 96.494 54.8056 96.5793 54.9715 96.6508C55.1398 96.7222 55.3092 96.7821 55.4798 96.8305L56.2266 97.0449C56.4524 97.1071 56.6783 97.1866 56.9042 97.2834C57.1301 97.3803 57.3364 97.5024 57.5231 97.6499C57.7121 97.7951 57.8631 97.9738 57.976 98.1858C58.0912 98.3956 58.1489 98.648 58.1489 98.943C58.1489 99.321 58.0509 99.661 57.855 99.9629C57.6591 100.265 57.3779 100.505 57.0114 100.682C56.6449 100.857 56.2058 100.945 55.6941 100.945C55.2124 100.945 54.7941 100.865 54.4391 100.706C54.0842 100.545 53.8053 100.322 53.6024 100.039C53.3996 99.7555 53.2855 99.427 53.2601 99.0536H53.924C53.947 99.3325 54.0392 99.5688 54.2006 99.7624C54.3619 99.956 54.5716 100.104 54.8298 100.205C55.0879 100.304 55.3761 100.354 55.6941 100.354C56.0468 100.354 56.3603 100.295 56.6345 100.177C56.9111 100.057 57.1278 99.8915 57.2845 99.6794C57.4436 99.465 57.5231 99.2161 57.5231 98.9326C57.5231 98.6929 57.4608 98.4924 57.3364 98.331C57.2119 98.1674 57.0379 98.0302 56.8143 97.9196C56.593 97.809 56.3361 97.711 56.0433 97.6257L55.1963 97.3768C54.6408 97.2108 54.2098 96.9815 53.9032 96.6888C53.5967 96.3961 53.4434 96.0227 53.4434 95.5686C53.4434 95.1883 53.5448 94.8541 53.7476 94.566C53.9528 94.2755 54.2294 94.0497 54.5774 93.8883C54.9277 93.7247 55.3207 93.6428 55.7564 93.6428C56.1966 93.6428 56.5861 93.7235 56.925 93.8849C57.2638 94.0462 57.5323 94.2686 57.7305 94.5521C57.931 94.8333 58.0382 95.1537 58.0521 95.5133H57.4263ZM66.7632 100.824V93.7431H70.8706V94.3239H67.4098V96.9896H70.6528V97.5704H67.4098V100.243H70.9397V100.824H66.7632ZM79.6025 100.824V93.7431H80.249V100.243H83.6234V100.824H79.6025ZM92.1375 100.824V93.7431H96.2345V94.3239H92.7841V96.9896H95.913V97.5704H92.7841V100.824H92.1375Z" fill="#C7B491"/>
</svg>
