<svg width="30" height="27" viewBox="0 0 30 27" fill="none" xmlns="http://www.w3.org/2000/svg">
<path d="M13.4652 23.6073L13.4637 23.6061C9.58022 20.3827 6.44126 17.7717 4.26152 15.3307C2.08909 12.8979 1 10.7741 1 8.54478C1 4.93702 4.09594 1.99323 8.25 1.99323C10.5891 1.99323 12.8283 2.99493 14.2705 4.53309L15 5.31108L15.7295 4.53309C17.1717 2.99493 19.4109 1.99323 21.75 1.99323C25.9041 1.99323 29 4.93702 29 8.54478C29 10.7741 27.9109 12.8979 25.7385 15.3307C23.5587 17.7717 20.4198 20.3827 16.5363 23.6061L16.5348 23.6073L15 24.8863L13.4652 23.6073Z" stroke="#C7B491" stroke-width="2"/>
</svg>
