<svg width="36" height="33" viewBox="0 0 36 33" fill="none" xmlns="http://www.w3.org/2000/svg">
<path d="M1.6872 13.2H34.3128V11H1.6872V13.2ZM33.6 12.5466V13.5124H36V12.5466H33.6ZM29.7264 30.8H6.2736V33H29.7264V30.8ZM2.4 13.5124V12.5466H0V13.5124H2.4ZM6.9504 31.1828C3.95784 25.6963 2.39992 19.6465 2.4 13.5124H0C0 19.9892 1.644 26.3758 4.8048 32.1684L6.9504 31.1828ZM6.2736 30.8C6.5616 30.8 6.8232 30.9496 6.9504 31.1828L4.8048 32.1684C4.94143 32.4182 5.15116 32.6283 5.41054 32.7752C5.66992 32.922 5.96873 32.9999 6.2736 33V30.8ZM29.0496 31.1828C29.1125 31.0677 29.2091 30.9708 29.3287 30.9032C29.4482 30.8356 29.5859 30.7999 29.7264 30.8V33C30.3504 33 30.9168 32.6788 31.1952 32.1684L29.0496 31.1828ZM33.6 13.5124C33.6 19.646 32.04 25.696 29.0496 31.1828L31.1952 32.1684C34.355 26.376 36.0001 19.9887 36 13.5124H33.6ZM34.3128 13.2C34.1238 13.2 33.9425 13.1312 33.8088 13.0086C33.6751 12.8861 33.6 12.7199 33.6 12.5466H36C36 12.1364 35.8222 11.743 35.5058 11.453C35.1894 11.1629 34.7603 11 34.3128 11V13.2ZM1.6872 11C1.23973 11 0.810581 11.1629 0.494169 11.453C0.177758 11.743 0 12.1364 0 12.5466H2.4C2.4 12.7199 2.3249 12.8861 2.19123 13.0086C2.05755 13.1312 1.87625 13.2 1.6872 13.2V11ZM9.4296 12.6654L16.6296 1.6654L14.568 0.5346L7.368 11.5346L9.4296 12.6654ZM19.3704 1.6654L26.5704 12.6654L28.6296 11.5346L21.4296 0.5346L19.3704 1.6654Z" fill="black"/>
</svg>
