<svg width="33" height="29" viewBox="0 0 33 29" fill="none" xmlns="http://www.w3.org/2000/svg">
<path d="M14.7647 26.1602L14.7632 26.1589C10.4942 22.4511 7.03322 19.4391 4.62786 16.6205C2.23193 13.8129 1 11.328 1 8.6921C1 4.40236 4.503 1 9.075 1C11.6594 1 14.1448 2.15736 15.7553 3.95454L16.5 4.78566L17.2447 3.95454C18.8552 2.15736 21.3406 1 23.925 1C28.497 1 32 4.40236 32 8.6921C32 11.328 30.7681 13.8129 28.3721 16.6205C25.9668 19.4391 22.5058 22.4511 18.2368 26.1589L18.2353 26.1602L16.5 27.6732L14.7647 26.1602Z" stroke="black" stroke-width="2"/>
</svg>
