<svg width="36" height="31" viewBox="0 0 36 31" fill="none" xmlns="http://www.w3.org/2000/svg">
<path d="M18 0C20.3869 0 22.6761 0.79253 24.364 2.20324C26.0518 3.61395 27 5.52729 27 7.52234C27 9.51739 26.0518 11.4307 24.364 12.8414C22.6761 14.2522 20.3869 15.0447 18 15.0447C15.6131 15.0447 13.3239 14.2522 11.636 12.8414C9.94821 11.4307 9 9.51739 9 7.52234C9 5.52729 9.94821 3.61395 11.636 2.20324C13.3239 0.79253 15.6131 0 18 0ZM18 18.8059C27.945 18.8059 36 22.1721 36 26.3282V30.0894H0V26.3282C0 22.1721 8.055 18.8059 18 18.8059Z" fill="black"/>
</svg>
