<svg width="35" height="30" viewBox="0 0 35 30" fill="none" xmlns="http://www.w3.org/2000/svg">
<path d="M34.1754 28.0431L23.7376 18.99C25.6831 16.9814 26.8556 14.3973 26.8556 11.5756C26.8556 5.18263 20.8437 0 13.4278 0C6.01189 0 0 5.18263 0 11.5756C0 17.9686 6.01189 23.1512 13.4278 23.1512C16.7971 23.1512 19.8747 22.0789 22.2327 20.311L32.6558 29.353C33.0753 29.7146 33.7559 29.7146 34.1754 29.353C34.5943 28.9914 34.5943 28.4052 34.1754 28.0431H34.1754ZM13.4278 21.3144C7.1887 21.3144 2.13072 16.9541 2.13072 11.5756C2.13072 6.19712 7.1887 1.83682 13.4278 1.83682C19.6669 1.83682 24.7249 6.19712 24.7249 11.5756C24.7249 16.9541 19.6669 21.3144 13.4278 21.3144Z" fill="black"/>
</svg>
