<svg width="32" height="30" viewBox="0 0 32 30" fill="none" xmlns="http://www.w3.org/2000/svg">
<path d="M31.7085 28.3988L22.0242 19.2309C23.8292 17.1968 24.917 14.5799 24.917 11.7225C24.917 5.24838 19.3391 0 12.4585 0C5.57793 0 0 5.24838 0 11.7225C0 18.1965 5.57793 23.4449 12.4585 23.4449C15.5846 23.4449 18.4401 22.3589 20.6278 20.5687L30.2986 29.7253C30.6878 30.0916 31.3193 30.0916 31.7085 29.7253C32.0972 29.3591 32.0972 28.7655 31.7085 28.3988H31.7085ZM12.4585 21.5848C6.6698 21.5848 1.97692 17.1692 1.97692 11.7225C1.97692 6.27573 6.6698 1.86012 12.4585 1.86012C18.2473 1.86012 22.9401 6.27573 22.9401 11.7225C22.9401 17.1692 18.2473 21.5848 12.4585 21.5848Z" fill="white"/>
</svg>
