<svg width="33" height="30" viewBox="0 0 33 30" fill="none" xmlns="http://www.w3.org/2000/svg">
<path d="M16.5 0C18.688 0 20.7865 0.790176 22.3336 2.1967C23.8808 3.60322 24.75 5.51088 24.75 7.5C24.75 9.48912 23.8808 11.3968 22.3336 12.8033C20.7865 14.2098 18.688 15 16.5 15C14.312 15 12.2135 14.2098 10.6664 12.8033C9.11919 11.3968 8.25 9.48912 8.25 7.5C8.25 5.51088 9.11919 3.60322 10.6664 2.1967C12.2135 0.790176 14.312 0 16.5 0ZM16.5 18.75C25.6163 18.75 33 22.1063 33 26.25V30H0V26.25C0 22.1063 7.38375 18.75 16.5 18.75Z" fill="white"/>
</svg>
