<svg width="31" height="29" viewBox="0 0 31 29" fill="none" xmlns="http://www.w3.org/2000/svg">
<path d="M15.5 0C19.7113 0 20.2368 0.0144999 21.8891 0.0869999C23.5398 0.1595 24.6636 0.40165 25.6525 0.76125C26.6755 1.12955 27.5373 1.62835 28.3991 2.4331C29.1873 3.15795 29.7971 4.03475 30.1862 5.0025C30.5691 5.92615 30.8295 6.97885 30.907 8.5231C30.9798 10.0688 31 10.5604 31 14.5C31 18.4397 30.9845 18.9312 30.907 20.4769C30.8295 22.0212 30.5691 23.0724 30.1862 23.9975C29.7982 24.9658 29.1882 25.8428 28.3991 26.5669C27.624 27.304 26.6868 27.8744 25.6525 28.2388C24.6651 28.5969 23.5398 28.8405 21.8891 28.913C20.2368 28.9812 19.7113 29 15.5 29C11.2886 29 10.7632 28.9855 9.1109 28.913C7.46015 28.8405 6.3364 28.5969 5.3475 28.2388C4.31261 27.8755 3.37517 27.3049 2.6009 26.5669C1.81258 25.8422 1.20269 24.9653 0.81375 23.9975C0.42935 23.0738 0.1705 22.0212 0.0929999 20.4769C0.0201499 18.9312 0 18.4397 0 14.5C0 10.5604 0.0154999 10.0688 0.0929999 8.5231C0.1705 6.9774 0.42935 5.9276 0.81375 5.0025C1.20162 4.03416 1.81165 3.15712 2.6009 2.4331C3.37539 1.69539 4.31276 1.12481 5.3475 0.76125C6.3364 0.40165 7.4586 0.1595 9.1109 0.0869999C10.7632 0.0188499 11.2886 0 15.5 0ZM15.5 7.25C13.4446 7.25 11.4733 8.01384 10.0199 9.37348C8.56652 10.7331 7.75 12.5772 7.75 14.5C7.75 16.4228 8.56652 18.2669 10.0199 19.6265C11.4733 20.9862 13.4446 21.75 15.5 21.75C17.5554 21.75 19.5267 20.9862 20.9801 19.6265C22.4335 18.2669 23.25 16.4228 23.25 14.5C23.25 12.5772 22.4335 10.7331 20.9801 9.37348C19.5267 8.01384 17.5554 7.25 15.5 7.25ZM25.575 6.8875C25.575 6.4068 25.3709 5.94578 25.0075 5.60587C24.6442 5.26596 24.1514 5.075 23.6375 5.075C23.1236 5.075 22.6308 5.26596 22.2675 5.60587C21.9041 5.94578 21.7 6.4068 21.7 6.8875C21.7 7.36821 21.9041 7.82922 22.2675 8.16913C22.6308 8.50904 23.1236 8.7 23.6375 8.7C24.1514 8.7 24.6442 8.50904 25.0075 8.16913C25.3709 7.82922 25.575 7.36821 25.575 6.8875ZM15.5 10.15C16.7333 10.15 17.916 10.6083 18.788 11.4241C19.6601 12.2399 20.15 13.3463 20.15 14.5C20.15 15.6537 19.6601 16.7601 18.788 17.5759C17.916 18.3917 16.7333 18.85 15.5 18.85C14.2667 18.85 13.084 18.3917 12.212 17.5759C11.3399 16.7601 10.85 15.6537 10.85 14.5C10.85 13.3463 11.3399 12.2399 12.212 11.4241C13.084 10.6083 14.2667 10.15 15.5 10.15Z" fill="#C7B491" fill-opacity="0.61"/>
</svg>
