<svg width="190" height="190" viewBox="0 0 190 190" fill="none" xmlns="http://www.w3.org/2000/svg">
<rect width="190" height="190" fill="white"/>
<rect width="190" height="190" fill="white"/>
<line x1="73.1156" y1="61.8073" x2="73.1156" y2="121.494" stroke="black" stroke-width="11.2794"/>
<line x1="119.643" y1="66.0848" x2="119.173" y2="121.542" stroke="black" stroke-width="11.2794"/>
<line y1="-5.63972" x2="34.057" y2="-5.63972" transform="matrix(0.617566 0.786519 -0.812335 0.583191 95.2045 46.0716)" stroke="black" stroke-width="11.2794"/>
<line x1="77.3687" y1="62.8799" x2="101.46" y2="105.657" stroke="black" stroke-width="3.28984"/>
<line y1="-0.704965" x2="75.5041" y2="-0.704965" transform="matrix(-0.578881 0.815412 -0.838787 -0.544459 141.732 41.1283)" stroke="black" stroke-width="1.40993"/>
<path d="M42.6098 132.546H43.7634L47.7315 142.074H47.8276L51.7957 132.546H52.9493V143.484H52.0094V134.656H51.9239L48.2335 143.484H47.3256L43.6352 134.656H43.5498V143.484H42.6098V132.546ZM65.7353 132.546H66.8889L70.1307 137.737H70.2268L73.4686 132.546H74.6222L70.6754 138.747V143.484H69.6821V138.747L65.7353 132.546ZM93.3403 135.281C93.2798 134.672 93.011 134.188 92.5339 133.828C92.0568 133.468 91.4569 133.289 90.7341 133.289C90.225 133.289 89.7764 133.376 89.3883 133.55C89.0037 133.725 88.7011 133.967 88.4804 134.277C88.2632 134.583 88.1546 134.932 88.1546 135.323C88.1546 135.612 88.2169 135.865 88.3415 136.082C88.4661 136.299 88.6335 136.486 88.8435 136.643C89.0571 136.796 89.2921 136.927 89.5485 137.038C89.8084 137.148 90.0701 137.241 90.3336 137.315L91.4871 137.647C91.8361 137.743 92.185 137.866 92.5339 138.015C92.8828 138.165 93.2015 138.353 93.4899 138.581C93.7818 138.805 94.015 139.081 94.1895 139.409C94.3675 139.733 94.4565 140.123 94.4565 140.579C94.4565 141.162 94.3052 141.688 94.0026 142.154C93.6999 142.62 93.2656 142.991 92.6995 143.265C92.1334 143.536 91.4551 143.671 90.6647 143.671C89.9206 143.671 89.2743 143.548 88.726 143.302C88.1777 143.053 87.7469 142.709 87.4336 142.272C87.1203 141.834 86.944 141.326 86.9049 140.749H87.9303C87.9659 141.18 88.1083 141.545 88.3575 141.844C88.6068 142.143 88.9308 142.371 89.3295 142.528C89.7283 142.681 90.1733 142.758 90.6647 142.758C91.2094 142.758 91.6936 142.667 92.1173 142.485C92.5446 142.3 92.8793 142.044 93.1214 141.716C93.367 141.385 93.4899 141 93.4899 140.563C93.4899 140.192 93.3938 139.883 93.2015 139.633C93.0092 139.38 92.7404 139.169 92.395 138.998C92.0532 138.827 91.6563 138.676 91.2041 138.544L89.8956 138.159C89.0376 137.903 88.3718 137.549 87.8982 137.096C87.4247 136.644 87.1879 136.068 87.1879 135.366C87.1879 134.779 87.3446 134.262 87.6579 133.817C87.9748 133.369 88.402 133.02 88.9397 132.771C89.4808 132.518 90.0879 132.391 90.7608 132.391C91.4409 132.391 92.0426 132.516 92.566 132.765C93.0893 133.014 93.5041 133.358 93.8103 133.796C94.1201 134.23 94.2856 134.725 94.307 135.281H93.3403ZM107.763 143.484V132.546H114.108V133.443H108.762V137.561H113.772V138.458H108.762V142.587H114.215V143.484H107.763ZM127.596 143.484V132.546H128.595V142.587H133.807V143.484H127.596ZM146.959 143.484V132.546H153.288V133.443H147.958V137.561H152.791V138.458H147.958V143.484H146.959Z" fill="#C7B491"/>
</svg>
