<svg width="32" height="26" viewBox="0 0 32 26" fill="none" xmlns="http://www.w3.org/2000/svg">
<path d="M31.9856 1.16401C32.016 0.992238 31.9981 0.815991 31.9336 0.652705C31.8691 0.48942 31.7602 0.344754 31.6178 0.233024C31.4753 0.121293 31.3042 0.0463701 31.1214 0.015668C30.9386 -0.015034 30.7504 -0.000450919 30.5754 0.0579743L0.708405 10.0583C0.511534 10.1241 0.339626 10.2427 0.214035 10.3993C0.0884448 10.5559 0.0147063 10.7437 0.00197962 10.9393C-0.010747 11.1349 0.0380991 11.3297 0.14245 11.4995C0.246802 11.6693 0.402059 11.8066 0.588937 11.8943L9.12237 15.8944C9.29054 15.9734 9.47797 16.0092 9.66567 15.9983C9.85337 15.9874 10.0347 15.9302 10.1912 15.8324L17.2739 11.4043L13.0349 16.3765C12.9427 16.4847 12.8754 16.6097 12.8374 16.7436C12.7994 16.8774 12.7915 17.0173 12.8142 17.1541C12.8368 17.291 12.8896 17.422 12.9691 17.5388C13.0486 17.6556 13.1531 17.7556 13.276 17.8325L26.0762 25.8327C26.2244 25.9251 26.3949 25.9813 26.5722 25.9961C26.7495 26.0109 26.9279 25.9838 27.0912 25.9174C27.2545 25.851 27.3975 25.7473 27.5071 25.6159C27.6167 25.4844 27.6895 25.3293 27.7188 25.1647L31.9856 1.16401Z" fill="#C7B491" fill-opacity="0.61"/>
</svg>
