<svg width="35" height="22" viewBox="0 0 35 22" fill="none" xmlns="http://www.w3.org/2000/svg">
<path fill-rule="evenodd" clip-rule="evenodd" d="M34.1972 1.48971C34.4393 0.631714 34.1972 0 33.0378 0H29.2098C28.2357 0 27.7865 0.545286 27.543 1.14714C27.543 1.14714 25.5961 6.16943 22.8385 9.43171C21.946 10.3777 21.5406 10.6779 21.0535 10.6779C20.81 10.6779 20.4439 10.3777 20.4439 9.51814V1.48971C20.4439 0.458857 20.1756 0 19.3648 0H13.3449C12.7368 0 12.3708 0.477714 12.3708 0.931857C12.3708 1.90771 13.7503 2.134 13.8918 4.88086V10.8491C13.8918 12.1581 13.6687 12.3954 13.1816 12.3954C11.8837 12.3954 8.72648 7.34957 6.85256 1.57614C6.48945 0.452571 6.12195 0 5.14343 0H1.31247C0.218745 0 0 0.545286 0 1.14714C0 2.21886 1.29789 7.54286 6.04466 14.5844C9.20918 19.393 13.6643 22 17.7228 22C20.1567 22 20.4571 21.4217 20.4571 20.4239V16.7891C20.4571 15.631 20.6875 15.4 21.4589 15.4C22.0277 15.4 23.0004 15.7017 25.2724 18.0196C27.8682 20.768 28.2954 22 29.7567 22H33.5847C34.6784 22 35.2268 21.4217 34.9118 20.2777C34.5647 19.14 33.3251 17.4884 31.6816 15.5289C30.7891 14.4131 29.4504 13.211 29.0436 12.6091C28.4763 11.8376 28.6381 11.4934 29.0436 10.8067C29.0436 10.8067 33.7101 3.85157 34.1957 1.48971H34.1972Z" fill="#C7B491" fill-opacity="0.61"/>
</svg>
