<svg width="38" height="27" viewBox="0 0 38 27" fill="none" xmlns="http://www.w3.org/2000/svg">
<path d="M37.9912 9.51565C38.0766 7.0173 37.5363 4.53765 36.4204 2.30693C35.6633 1.39162 34.6126 0.773921 33.4514 0.561482C28.6483 0.1208 23.8254 -0.0598211 19.0032 0.0203926C14.1987 -0.0634618 9.39307 0.111331 4.60687 0.544028C3.66061 0.718079 2.78491 1.16688 2.08664 1.83566C0.533073 3.28439 0.360454 5.76293 0.187836 7.85747C-0.0626121 11.6234 -0.0626121 15.4021 0.187836 19.168C0.237775 20.3469 0.411366 21.5171 0.705691 22.6589C0.913826 23.5405 1.33492 24.3561 1.93128 25.0327C2.6343 25.7369 3.53039 26.2113 4.50329 26.3942C8.2248 26.8587 11.9746 27.0512 15.7235 26.9702C21.7651 27.0574 27.0645 26.9702 33.3306 26.4814C34.3273 26.3098 35.2487 25.8348 35.9716 25.12C36.4549 24.6311 36.8159 24.0327 37.0246 23.3745C37.6419 21.4591 37.9451 19.4544 37.9222 17.44C37.9912 16.4625 37.9912 10.5629 37.9912 9.51565ZM15.1021 18.4873V7.68292L25.3211 13.1113C22.4556 14.7171 18.6753 16.5324 15.1021 18.4873Z" fill="#C7B491" fill-opacity="0.61"/>
</svg>
